
<global>
amp_veltrack=0
ampeg_release=0.85
</global>

<group>
group_label=Group_0-42
lpc_hicc1=42
lpc_locc1=0

<region>
hikey=B3
hivel=127
lokey=A#3
lovel=1
lpc=+19lQgAbVsPrO6dDhjaNwwi0HUNh7LPC7hJPQh1uDsHuW7PAZycZwbtCl0FmL0LB8ruBQHnMD8BjwrY/q5MDv5/0IUCkeifA3iTLvo1c4T1zuidAuRoCwPtIkLxNscM+
lpc_rms=-42.89
pitch_keycenter=A#3
sample=Trumpet_Marcato_Half_PP_A#3.opus
tune=+1
</region>

<region>
hikey=B4
hivel=127
lokey=A#4
lovel=1
lpc=8l93Qtj1csPQRdRD9DTdwwmDpUMdS1fDhpH8QnvZU8I5PGNBWkV6wVKD2kGeffjBjFcMQn7vDcILOZpB+Ov3QEMNxsENd5RBKQisQChB7cEylxJC/wupwR0yM0C06+s/
lpc_rms=-36.30
pitch_keycenter=A#4
sample=Trumpet_Marcato_Half_PP_A#4.opus
tune=-20
</region>

<region>
hikey=B5
hivel=127
lokey=A#5
lovel=1
lpc=kB1IQmAI48KZYRVD1ZAOw8us6EKRlK/CUUOCQhHKPMJtjxpC3WcIwlyg1kFRAhnBikrxwOyhYEFBNYfAceMQwWNAfEH3yTPBDwOIQBuY2T/sVDnA7FbuP5wrpUA8BT3B
lpc_rms=-34.75
pitch_keycenter=A#5
sample=Trumpet_Marcato_Half_PP_A#5.opus
tune=-52
</region>

<region>
hikey=C#4
hivel=127
lokey=C4
lovel=1
lpc=jCdJQvSvNcOaIIpDBNVpw+jQDEN5y7DC+pxcQqw+pMH4e4hAMbbmwGF7+kDNBe+/gowiQNlk2cDmhp5AtCWev40Xs78CAIZAvVYlwAVlQMBUDapAqWsbwNMMUL9m/Vs/
lpc_rms=-42.46
sample=Trumpet_Marcato_Half_PP_C4.opus
tune=+12
</region>

<region>
hikey=C#5
hivel=127
lokey=C5
lovel=1
lpc=6QnHQh8nwMMwnBxEPM0NxO8WrENmUTnDQPLGQkVKLMJLNb9B/6IUwmnJRUKJOwrC0gBtv1zI+kHkXwDCN0oQQWgWNEHBzYLBMRL4QNsgPkE/AS3CSqeNQvfoaMLfUJlB
lpc_rms=-35.44
pitch_keycenter=C5
sample=Trumpet_Marcato_Half_PP_C5.opus
tune=+2
</region>

<region>
hikey=F6
hivel=127
lokey=C6
lovel=1
lpc=/vtwQgKwF8Nx/EpDmQA+w70hF0OC3dDCadmWQtFNUcJ5exNCCOlYwYGvo8CNYcxBTwAAwmXbAUKBvovBXSGXP9F/qUFe5P/BiSYmQv6/PcLiaYRCSSOcwj/DQ0JHnBfB
lpc_rms=-32.24
pitch_keycenter=C6
sample=Trumpet_Marcato_Half_PP_C6.opus
tune=-27
</region>

<region>
hikey=D#4
hivel=127
lokey=D4
lovel=1
lpc=XpxnQjWHU8M5BqND6HaMwwhbMEPLoejCLN+JQp+sgMGCFNTANa5twLYBgkGXS2PBTv3EQEYjtD9kvsDAbYwMQOSm1ECkFNHAP89UwG3VMkGze1XB+VFxQWAFScFg7JJA
lpc_rms=-40.88
pitch_keycenter=D4
sample=Trumpet_Marcato_Half_PP_D4.opus
tune=-6
</region>

<region>
hikey=D#5
hivel=127
lokey=D5
lovel=1
lpc=BRPZQlD5wsNsIRVE1MD/w+uMnUOpsE/DdssPQ9VVocL6aolCHumvwmP9mUJAZRLCf3FIwErBEEI9Om3CXnqPQoEpm8LfJINCAyipwWzuPcEyIH/BSpOIQlxEisLk6M9B
lpc_rms=-34.54
pitch_keycenter=D5
sample=Trumpet_Marcato_Half_PP_D5.opus
tune=-7
</region>

<region>
hikey=F4
hivel=127
lokey=E4
lovel=1
lpc=eTWLQnwegMMoRMdDyp+xw9zIc0M5mzLD5CPnQikuHcJpzExAfM42wSGlqUFI94HB0S0ZQRfsqcB4bQ/AeIMlQcRABcEMwoNAHMpcwX8K4UH1ke/B8xC1QfxRT8GMUXNA
lpc_rms=-39.33
pitch_keycenter=E4
sample=Trumpet_Marcato_Half_PP_E4.opus
tune=-10
</region>

<region>
hikey=F5
hivel=127
lokey=E5
lovel=1
lpc=KT5ZQiI4P8Oacp1Dl7qiwzSAgENH3i/DX53UQvRFc8LucTJCNs4Zwl8pC0Jt5gbCBQgRQgttDsIWP6tBnHhXQMFjaMF5B4dBAOL6wT1db0JnXa3C9yW+QuY1hcLTGrRB
lpc_rms=-37.08
pitch_keycenter=E5
sample=Trumpet_Marcato_Half_PP_E5.opus
tune=-22
</region>

<region>
hikey=G3
hivel=127
lokey=F#3
lovel=1
lpc=uAMcQgZRB8Nm20JDzgcXw/vUn0Jp4ELCwJcFQv4BWsGQJRtAVxeZv9REAz+5PRc/zrZ4P6brZ8AYT6BACU+fwCyGIUBspBtAvPilwKELGkCdDk5AkS24wLYlYUDaG0q/
lpc_rms=-47.69
pitch_keycenter=F#3
sample=Trumpet_Marcato_Half_PP_F#3.opus
tune=+12
</region>

<region>
hikey=G4
hivel=127
lokey=F#4
lovel=1
lpc=Q6NnQke/W8Ms7LRDKzCuw8URekPUZzDDt0PlQqTTLsJ7f1A/zTInwHHzi0Ew/Y/BzURFQYTvLsHrGMBA69F/QNfAksD6iBjAx4E/PxbF4UCwg/vAeIiGQOSiDsB2iHY/
lpc_rms=-39.82
pitch_keycenter=F#4
sample=Trumpet_Marcato_Half_PP_F#4.opus
tune=-10
</region>

<region>
hikey=G5
hivel=127
lokey=F#5
lovel=1
lpc=oaHOQtmlpsOlTQNEJroBxOI1xEOAjYrDBS1SQwJDF8PrMMlCjTxzwtNAK0JkFhrCtaQ1QkOrEcK27qRBtGQtwbAEdUH160fBpK00QZV/kMA50U3BC9wpQr7qOcIvscRB
lpc_rms=-31.05
pitch_keycenter=F#5
sample=Trumpet_Marcato_Half_PP_F#5.opus
tune=-23
</region>

<region>
hikey=A3
hivel=127
lokey=G#3
lovel=1
lpc=cM9WQoWEN8NGq39DFCxBw4100kJY+33COHEVQmNtP8FzxRS/Xk1pwNXCOkEK2x7BYwmaQDt0mMA+eJJARwnfv3yvzL1H4IY/G044wCBLdUCkokHA+BwqQBImJ8ABHZ8/
lpc_rms=-45.49
pitch_keycenter=G#3
sample=Trumpet_Marcato_Half_PP_G#3.opus
tune=-11
</region>

<region>
hikey=A4
hivel=127
lokey=G#4
lovel=1
lpc=6NvTQm0VwMOMfg5EwwDjw906ckN5HAjDrhy7QpGfPsLm67FA3AG9QLlG1EAn2zXBGX6lQJN9WcFePgFC7R3HwQ9EbcDtWL9BJYDywYAvmUHCBpPAe1ZIQZ58qcE9xhtB
lpc_rms=-37.74
pitch_keycenter=G#4
sample=Trumpet_Marcato_Half_PP_G#4.opus
tune=-41
</region>

<region>
hikey=A5
hivel=127
lokey=G#5
lovel=1
lpc=DXOJQtd3TcMzr5dDnfCTw78uaEPimyXDiGrgQg3Vg8Khm/pBdkRpwR5HkkHBnLLBhbiAQST5nr5YNUHBkPiHQRMGVsFZEfBA16IFQS/KDMJNYYBC426WwtcycUI7hb/B
lpc_rms=-35.67
pitch_keycenter=G#5
sample=Trumpet_Marcato_Half_PP_G#5.opus
tune=-45
</region>
</group>

<group>
group_label=Group_43-86
lpc_hicc1=86
lpc_locc1=43

<region>
hikey=B3
hivel=127
lokey=A#3
lovel=1
lpc=9aknQgu+G8OH3HxDm/trww/7FUMgN6XCehk5QladpMG3KKFA/nJBwBZRGkEmH47BIISiQYF3TsFp8xJAGrHJP+bTrr4xIKA/mhhKwHp29D8AaAU/WXHyvlFr9b7G2r0+
lpc_rms=-39.06
pitch_keycenter=A#3
sample=Trumpet_Marcato_Half_MF_A#3.opus
tune=+12
</region>

<region>
hikey=B4
hivel=127
lokey=A#4
lovel=1
lpc=YRrcQVREzcK+EjpD5rRgwxzOVkM86jTDaxENQw521sI9a6VCQjN4wrvGLkI/4QHCJGnKQRRFNcGkWO/AvjKfQVcQsMHUHH1Bcw5VwO4dC8GLUVJBYLAIwQ9V2D/rKz8/
lpc_rms=-32.85
pitch_keycenter=A#4
sample=Trumpet_Marcato_Half_MF_A#4.opus
tune=-12
</region>

<region>
hikey=B5
hivel=127
lokey=A#5
lovel=1
lpc=g9zFQZNlSMLv2YNCWsp3ws6uU0KSYRTCHyPcQbhBm8EM2pRBfPtywRc4eEEAYz3BwyY3Qdm/0MCYkq9AksDnv+yyHUCjl0g/0jyrPtoeUj/VJIlANMDgwP5XNUFhAfDA
lpc_rms=-29.38
pitch_keycenter=A#5
sample=Trumpet_Marcato_Half_MF_A#5.opus
tune=-53
</region>

<region>
hikey=C#4
hivel=127
lokey=C4
lovel=1
lpc=CzgpQlpfH8MObIVDfMSGw8pcSUMKdQjDggGzQufcQ8KHqJNBHw3QwIPuAUHSeR/BdVDhQJO9hcCRPK9Al7fcwAtdjUAh4xu/57Kjv8DWsz7u53Q/ETjUPsMx4r/5fk8/
lpc_rms=-41.58
sample=Trumpet_Marcato_Half_MF_C4.opus
tune=+15
</region>

<region>
hikey=C#5
hivel=127
lokey=C5
lovel=1
lpc=P6+GQeoMYMIvPbhCtefSwp58yEJlwafCcg54QpsWLMLCUwZC6y74weHR7EE3btDB82ySQQirrMBgls7AQGZUQVlDesGwlHNBOvlcwUdXU0HUCVnBCGhLQSKkCMH9RztA
lpc_rms=-32.06
pitch_keycenter=C5
sample=Trumpet_Marcato_Half_MF_C5.opus
tune=-11
</region>

<region>
hikey=F6
hivel=127
lokey=C6
lovel=1
lpc=Cp2MQnYrBsNdxRlDnfMGwyfn5EJiT5/C1oKIQugPTsJnAVlCx74rwtKzLEIettfB1V7VQQwBdcF5IKRBy4giwWR3NkFdbDBASidkv2f2KkHwCpPAOlqOQfbUK8KyOgBC
lpc_rms=-27.11
pitch_keycenter=C6
sample=Trumpet_Marcato_Half_MF_C6.opus
tune=-18
</region>

<region>
hikey=D#4
hivel=127
lokey=D4
lovel=1
lpc=3g0nQlBAJMPA4pRDrUymw3K8hEMawCfD1uu1QrJPSsJPjCFCLichwslQDULnBNXB6nGoQWcnYMGSctw+RWdZQcH8msFmNJtBlOqewak/s0HOv7fByi6TQRJ8HMHoUCRA
lpc_rms=-37.20
pitch_keycenter=D4
sample=Trumpet_Marcato_Half_MF_D4.opus
tune=-5
</region>

<region>
hikey=D#5
hivel=127
lokey=D5
lovel=1
lpc=Bpq1QS6Co8INhw9D1Ngpw1gpIUMxpAbDtF3SQlkOn8Kh6GxCry4uwre9BEKvQuTBN9HdQRS32sE1DONBH//twb0F2kHxqYrBAKbUPxyfT0FOy6XBWgSmQUneVMFWJ4RA
lpc_rms=-33.10
pitch_keycenter=D5
sample=Trumpet_Marcato_Half_MF_D5.opus
tune=-21
</region>

<region>
hikey=F4
hivel=127
lokey=E4
lovel=1
lpc=+1xaQnDxVcP+f7pDNzTCw4k3kENjHTfDsyToQgy4nML/22NCLz46wjSVHkJB+N7B/GqUQQeNm8HqjbVBEex6weplT8DjvJRBF+FcwWP+ksC1UI5BNTOCwaKC3EAPtIC/
lpc_rms=-34.82
pitch_keycenter=E4
sample=Trumpet_Marcato_Half_MF_E4.opus
tune=-1
</region>

<region>
hikey=F5
hivel=127
lokey=E5
lovel=1
lpc=s8PIQYdNqsKx0g9DZYwlw9ZTG0MdZwLDs6nPQnn4nsKeInVCMzpOwurBPkJX9SbCA3z/QY0NnsHpHR5BPd/+v2z8e8CzqupAcdAMwf8AU0EKbpHBi02lQRYYgsGbU9ZA
lpc_rms=-31.45
pitch_keycenter=E5
sample=Trumpet_Marcato_Half_MF_E5.opus
tune=-28
</region>

<region>
hikey=G3
hivel=127
lokey=F#3
lovel=1
lpc=zq8LQhNTAsPJx11Dea5qw6ScOUOFq/nCJNiUQh7PIcJxxsFBx82YwR6RhUGYg0rBZT4fQaBfLMFXtiJBagedwKWHdL7cT6s/bz9GPqBNJsB425FA16J4wP3FwD+Xpl6+
lpc_rms=-40.90
pitch_keycenter=F#3
sample=Trumpet_Marcato_Half_MF_F#3.opus
tune=+19
</region>

<region>
hikey=G4
hivel=127
lokey=F#4
lovel=1
lpc=+3MsQq37J8NHdplDTOCzw/rcnkP3dGPDN8UCQ5tPacJ87btBN/9cwez1UkGVCZTBfRnkQVQXAsJI5dVBLXiMwWjA8kDxMqFAyaoxwcSkrEA/b4U/lM82P9gqaMDBLANA
lpc_rms=-35.16
pitch_keycenter=F#4
sample=Trumpet_Marcato_Half_MF_F#4.opus
tune=-10
</region>

<region>
hikey=G5
hivel=127
lokey=F#5
lovel=1
lpc=4VvGQe4jiMJUactCKTTcwoQb1EJBP7zCJjqdQiyYasITRypCcjDpwcMlqEGYSXzBkOJlQY1vEcGvphBA8DfJQMudQcHQ+ptB4X3JwatS/EEYRwnC97QEQkBquMFiGyRB
lpc_rms=-27.85
pitch_keycenter=F#5
sample=Trumpet_Marcato_Half_MF_F#5.opus
tune=-24
</region>

<region>
hikey=A3
hivel=127
lokey=G#3
lovel=1
lpc=nj87QsodMsMa8JJDzlWKw+n4L0NqdMrCo02JQirBMcJJWq9BGAVIwaTPaUG12X3BRFQeQfhZB8Cz/IA+4tOMv3W8K8C4VxVBBUk8wVw15UAG4kLAvVSdQG2er8A87fg/
lpc_rms=-38.86
pitch_keycenter=G#3
sample=Trumpet_Marcato_Half_MF_G#3.opus
tune=+14
</region>

<region>
hikey=A4
hivel=127
lokey=G#4
lovel=1
lpc=5WcdQmh7G8Nr9YtDko+Zw9HRcUMZVRvD/UmsQolpMcIn+thBmFaKwWzt0UDo54rAb/twQQtmrcGtKFVBJmy6wMX5J0FI5FfBcbBiQEfNKUFD93LBa0wXQS8kN8AgM/Y+
lpc_rms=-35.24
pitch_keycenter=G#4
sample=Trumpet_Marcato_Half_MF_G#4.opus
tune=-26
</region>

<region>
hikey=A5
hivel=127
lokey=G#5
lovel=1
lpc=QoUQQje4lcLK68hCVMG8wtBQqkJpsYHC+T1WQnGnFsL8owJCDz69wSKQz0GWJpvBstCEQdXqg8DRgKA/zgf5QBYJC8Fj53JBbsgWwYFgIkGbR7fAqJE6QX2kF8GEpjJB
lpc_rms=-29.18
pitch_keycenter=G#5
sample=Trumpet_Marcato_Half_MF_G#5.opus
tune=-41
</region>
</group>

<group>
group_label=Group_87-127
lpc_hicc1=127
lpc_locc1=87

<region>
hikey=B3
hivel=127
lokey=A#3
lovel=1
lpc=V1sBQo31/MJAxGhD/3aIw59fb0PTvy3DH37YQsooasJ0LwdCc4j9webzGkKtjCLC0XoAQg6FhsEqyeg/Yq3VQIsn0cCFVxI/+ubaQPM0Q8EEIlhBNPkmwXm+o0B2ppS/
lpc_rms=-36.02
pitch_keycenter=A#3
sample=Trumpet_Marcato_Half_FF_A#3.opus
tune=+12
</region>

<region>
hikey=B4
hivel=127
lokey=A#4
lovel=1
lpc=CZJ+QcsXUsKX0LBCNLfWwkK130J4xtLCWtG2Ql98ncLyDpJCcqKKwvMceUL10FHCZgkmQvls6MGPw5JBm44twcUYEkD24xBBLqGHwYBDlUEihILB1elFQXZT7cAJuAdA
lpc_rms=-29.27
pitch_keycenter=A#4
sample=Trumpet_Marcato_Half_FF_A#4.opus
tune=-4
</region>

<region>
hikey=B5
hivel=127
lokey=A#5
lovel=1
lpc=KlLMQQoR+MFhByxCjUnzwU0y8kErTEnBo6dYQelRvL8z5A9BFY7Xv/osP0HgYLHAOghdQfVyOsBZCO5APE52QCMYTUDf5ItApZjbQMxiXMD4LYZBDpwxwQhXjUHe9hPA
lpc_rms=-23.55
pitch_keycenter=A#5
sample=Trumpet_Marcato_Half_FF_A#5.opus
tune=-33
</region>

<region>
hikey=C#4
hivel=127
lokey=C4
lovel=1
lpc=fkZjQTr3NsJ9VJFCJaWjwrcyn0IXQ47CaMlsQp+TPcJFRhpCU44Awnwa2EGq6LbBi+qhQY+Jj8HQxXFBpZdIwbgkIkF3Ed3AtgyGQCDFOcCzxxZA0fHjv/59iT/OZ8i+
lpc_rms=-34.84
sample=Trumpet_Marcato_Half_FF_C4.opus
tune=+15
</region>

<region>
hikey=C#5
hivel=127
lokey=C5
lovel=1
lpc=foUAQdRhqMHNcNtBeu/TwYnhuUHcTpHBosBWQc0hK8FyJR1By0YUwT31AUGNwrnA90A6QPWP3z6yjgfAjVH5P+w3jr99ueI+GLh0vgYU2T7wKW+/dhjVPzBwvL9EYfo+
lpc_rms=-29.34
pitch_keycenter=C5
sample=Trumpet_Marcato_Half_FF_C5.opus
tune=-14
</region>

<region>
hikey=F6
hivel=127
lokey=C6
lovel=1
lpc=/8M6QsVTX8KgMi5C7xrfwad02EGyUWfBcsSAQTiZyMCfVSJB2tT2v+If3UBnUaM/RtVYQM0oikCnAEc/Lh/wQIbTPsBDoDVBUHf2wGhHkEF2pYnBKLgDQna4U8IlHu1B
lpc_rms=-23.69
pitch_keycenter=C6
sample=Trumpet_Marcato_Half_FF_C6.opus
tune=-29
</region>

<region>
hikey=D#4
hivel=127
lokey=D4
lovel=1
lpc=jBrVQeyTw8JTbyZDPnEywyulEEOuh87CjU+PQumOR8L8sxFCOULtwTYK1EFrULnBjMyOQSNbPME/UrRAbQeQPaG3EMB/HZc/554BQNxt58DXuyBBr5/zwGMIakDaU2m/
lpc_rms=-37.44
pitch_keycenter=D4
sample=Trumpet_Marcato_Half_FF_D4.opus
tune=-18
</region>

<region>
hikey=D#5
hivel=127
lokey=D5
lovel=1
lpc=kNkIQTsdssFfSuVB5DXUwTSqukGygZvBL31dQXgQB8EnuM9AF9m8wN/To0DItbTAuRC2QCxoKMCSnxW/r60BQPVYHcAvFjNArugEwKY5KT8A8d0/FIZIwDPgHkBlATm/
lpc_rms=-27.46
pitch_keycenter=D5
sample=Trumpet_Marcato_Half_FF_D5.opus
tune=-15
</region>

<region>
hikey=F4
hivel=127
lokey=E4
lovel=1
lpc=T6oYQiu1EcP9IHxDZ3iGw4AsV0N1jxbDLy+zQoi3E8KJyyJBu/kOwcrDl0FnVd/BiRfMQcYnecFw70tBLEyEwVXpikHZuVnBryYtQbGyfcH/3dtBe0f3wcnZk0HLIY7A
lpc_rms=-32.91
pitch_keycenter=E4
sample=Trumpet_Marcato_Half_FF_E4.opus
tune=-16
</region>

<region>
hikey=F5
hivel=127
lokey=E5
lovel=1
lpc=rSQ3QRH37sHrVxpCePYOwols8EEzDrLBNClsQagZMcF7ukZBywxSwcQON0FFCQzBXhEEQckQBcGUJ9FAIqdVwJgsFUCTPuW/DYsRP23coj2fxaU//bsDwLMzBj+wrFE/
lpc_rms=-24.14
pitch_keycenter=E5
sample=Trumpet_Marcato_Half_FF_E5.opus
tune=-11
</region>

<region>
hikey=G3
hivel=127
lokey=F#3
lovel=1
lpc=h8kTQvwZEcNQ2IVDwu6dw4gwjEMfgE7D2hECQwOMjcKVdBtCVNflwRmK3EG1ntbBN2S9Qd0jisFliRpBOMGQwOPMWkBiPUnAtmYePwY8kz9aatk+7u/ev1KAeT9mM1C+
lpc_rms=-37.21
pitch_keycenter=F#3
sample=Trumpet_Marcato_Half_FF_F#3.opus
tune=+22
</region>

<region>
hikey=G4
hivel=127
lokey=F#4
lovel=1
lpc=fJOvQTujlsJIWftCR0oQwyjACkPnK/HCztG/QphyjsKBUVRCIN0nwqA0EEJhXwLC8S/cQWxUisHerrVAWm4HQFtgtsCeH/pA9WrSwI2aeEA8PoTANqzVQFvGwsCVlxZA
lpc_rms=-31.87
pitch_keycenter=F#4
sample=Trumpet_Marcato_Half_FF_F#4.opus
tune=-10
</region>

<region>
hikey=G5
hivel=127
lokey=F#5
lovel=1
lpc=9VVWQeyXEcJU01VC/dxfwmn7SkKRHCbCnAkAQpo4tMFkpnJBqGf2wPMUhEBx6pbAR7H6QAhx8MAasoVAHZaXP8MkgsB/ntxA7RUowViFf0HbtprB2GSZQYTtTcEDbKpA
lpc_rms=-28.35
pitch_keycenter=F#5
sample=Trumpet_Marcato_Half_FF_F#5.opus
tune=-5
</region>

<region>
hikey=A3
hivel=127
lokey=G#3
lovel=1
lpc=VawNQgLJCsP/rX5DtZWVw8YghEP/TEDDe13tQowAesIEx/1BE7u3wZ8dvEECv6LBLUwuQVxKN8D6zw1ApUuSwM3sK0DurE1AaqO7wGDvFUARMxBAQOZQwOcQ1D8r3Zi+
lpc_rms=-36.03
pitch_keycenter=G#3
sample=Trumpet_Marcato_Half_FF_G#3.opus
tune=+6
</region>

<region>
hikey=A4
hivel=127
lokey=G#4
lovel=1
lpc=8VUzQouXLsOSw5pDeXGtw3S2mUMD4XHDQ9gWQ5Xwd8JSjclBnJMBwhwWLUJrt0rC8Ud7QvfzgMJJ+T5CXHH1wWGop0FfIk3BHnMnQWzLV8EYBi9B62k1wLY9x7/Uj5M/
lpc_rms=-31.10
pitch_keycenter=G#4
sample=Trumpet_Marcato_Half_FF_G#4.opus
tune=-26
</region>

<region>
hikey=A5
hivel=127
lokey=G#5
lovel=1
lpc=aRRMQaMrs8HInthBQ3avwexKlkFAcUvB7jcpQVzFs8AjxaJAgynVv1CT8T+yqpI+ZuMPQNFMO79vSpw/D23DP9OqrD0opwFApgLOvwzRoUCjqajAEj8OQYTz9cDiIdVA
lpc_rms=-26.24
pitch_keycenter=G#5
sample=Trumpet_Marcato_Half_FF_G#5.opus
tune=-22
</region>
</group>

<group>
group_label=RR1
seq_length=2
seq_position=1

<region>
hivel=127
key=A#3
lovel=87
offset=355
sample=Trumpet_staccato_FF_A#3_RR1.opus
tune=+21
</region>

<region>
hivel=127
key=A#4
lovel=87
offset=117
sample=Trumpet_staccato_FF_A#4_RR1.opus
tune=-4
</region>

<region>
hivel=127
key=A#5
lovel=87
sample=Trumpet_staccato_FF_A#5_RR1.opus
tune=-57
</region>

<region>
hivel=127
key=A3
lovel=87
offset=827
sample=Trumpet_staccato_FF_A3_RR1.opus
tune=+29
</region>

<region>
hivel=127
key=A4
lovel=87
offset=81
sample=Trumpet_staccato_FF_A4_RR1.opus
tune=-33
</region>

<region>
hivel=127
key=A5
lovel=87
offset=477
sample=Trumpet_staccato_FF_A5_RR1.opus
tune=-27
</region>

<region>
hivel=127
key=B3
lovel=87
offset=516
sample=Trumpet_staccato_FF_B3_RR1.opus
tune=+16
</region>

<region>
hivel=127
key=B4
lovel=87
offset=145
sample=Trumpet_staccato_FF_B4_RR1.opus
tune=-10
</region>

<region>
hivel=127
key=B5
lovel=87
offset=284
sample=Trumpet_staccato_FF_B5_RR1.opus
tune=-22
</region>

<region>
hivel=127
key=C#4
lovel=87
sample=Trumpet_staccato_FF_C#4_RR1.opus
tune=+10
</region>

<region>
hivel=127
key=C#5
lovel=87
offset=69
sample=Trumpet_staccato_FF_C#5_RR1.opus
tune=-3
</region>

<region>
hikey=C4
hivel=127
lokey=C4
lovel=87
offset=60
sample=Trumpet_staccato_FF_C4_RR1.opus
tune=+2
</region>

<region>
hivel=127
key=C5
lovel=87
offset=583
sample=Trumpet_staccato_FF_C5_RR1.opus
tune=-3
</region>

<region>
hikey=F6
hivel=127
lokey=C6
lovel=87
pitch_keycenter=C6
sample=Trumpet_staccato_FF_C6_RR1.opus
tune=-62
</region>

<region>
hivel=127
key=D#4
lovel=87
offset=630
sample=Trumpet_staccato_FF_D#4_RR1.opus
tune=+1
</region>

<region>
hivel=127
key=D#5
lovel=87
offset=159
sample=Trumpet_staccato_FF_D#5_RR1.opus
tune=-17
</region>

<region>
hivel=127
key=D4
lovel=87
offset=25
sample=Trumpet_staccato_FF_D4_RR1.opus
tune=-5
</region>

<region>
hivel=127
key=D5
lovel=87
offset=502
sample=Trumpet_staccato_FF_D5_RR1.opus
tune=-8
</region>

<region>
hivel=127
key=E4
lovel=87
sample=Trumpet_staccato_FF_E4_RR1.opus
tune=+3
</region>

<region>
hivel=127
key=E5
lovel=87
offset=124
sample=Trumpet_staccato_FF_E5_RR1.opus
tune=-6
</region>

<region>
hivel=127
key=F#3
lovel=87
offset=68
sample=Trumpet_staccato_FF_F#3_RR1.opus
tune=+39
</region>

<region>
hivel=127
key=F#4
lovel=87
offset=140
sample=Trumpet_staccato_FF_F#4_RR1.opus
tune=-4
</region>

<region>
hivel=127
key=F#5
lovel=87
offset=524
sample=Trumpet_staccato_FF_F#5_RR1.opus
tune=-10
</region>

<region>
hivel=127
key=F4
lovel=87
offset=85
sample=Trumpet_staccato_FF_F4_RR1.opus
tune=-5
</region>

<region>
hivel=127
key=F5
lovel=87
offset=24
sample=Trumpet_staccato_FF_F5_RR1.opus
tune=-21
</region>

<region>
hivel=127
key=G#3
lovel=87
offset=1904
sample=Trumpet_staccato_FF_G#3_RR1.opus
tune=+26
</region>

<region>
hivel=127
key=G#4
lovel=87
sample=Trumpet_staccato_FF_G#4_RR1.opus
tune=-15
</region>

<region>
hivel=127
key=G#5
lovel=87
sample=Trumpet_staccato_FF_G#5_RR1.opus
tune=-13
</region>

<region>
hivel=127
key=G3
lovel=87
sample=Trumpet_staccato_FF_G3_RR1.opus
tune=+35
</region>

<region>
hivel=127
key=G4
lovel=87
sample=Trumpet_staccato_FF_G4_RR1.opus
tune=-9
</region>

<region>
hivel=127
key=G5
lovel=87
sample=Trumpet_staccato_FF_G5_RR1.opus
tune=-9
</region>

<region>
hivel=86
key=A#3
lovel=43
offset=52
sample=Trumpet_staccato_MF_A#3_RR1.opus
tune=-2
</region>

<region>
hivel=86
key=A#4
lovel=43
sample=Trumpet_staccato_MF_A#4_RR1.opus
tune=-34
</region>

<region>
hivel=86
key=A#5
lovel=43
offset=52
sample=Trumpet_staccato_MF_A#5_RR1.opus
tune=-41
</region>

<region>
hivel=86
key=A3
lovel=43
sample=Trumpet_staccato_MF_A3_RR1.opus
tune=-3
</region>

<region>
hivel=86
key=A4
lovel=43
sample=Trumpet_staccato_MF_A4_RR1.opus
tune=-20
</region>

<region>
hivel=86
key=A5
lovel=43
sample=Trumpet_staccato_MF_A5_RR1.opus
tune=-14
</region>

<region>
hivel=86
key=B3
lovel=43
sample=Trumpet_staccato_MF_B3_RR1.opus
tune=+5
</region>

<region>
hivel=86
key=B4
lovel=43
sample=Trumpet_staccato_MF_B4_RR1.opus
tune=-12
</region>

<region>
hivel=86
key=B5
lovel=43
offset=32
sample=Trumpet_staccato_MF_B5_RR1.opus
tune=-36
</region>

<region>
hivel=86
key=C#4
lovel=43
offset=1172
sample=Trumpet_staccato_MF_C#4_RR1.opus
tune=+10
</region>

<region>
hivel=86
key=C#5
lovel=43
offset=144
sample=Trumpet_staccato_MF_C#5_RR1.opus
tune=+10
</region>

<region>
hikey=C4
hivel=86
lokey=C4
lovel=43
offset=1206
sample=Trumpet_staccato_MF_C4_RR1.opus
tune=+15
</region>

<region>
hivel=86
key=C5
lovel=43
offset=169
sample=Trumpet_staccato_MF_C5_RR1.opus
tune=+2
</region>

<region>
hikey=F6
hivel=86
lokey=C6
lovel=43
offset=38
pitch_keycenter=C6
sample=Trumpet_staccato_MF_C6_RR1.opus
tune=-19
</region>

<region>
hivel=86
key=D#4
lovel=43
offset=119
sample=Trumpet_staccato_MF_D#4_RR1.opus
tune=-10
</region>

<region>
hivel=86
key=D#5
lovel=43
offset=315
sample=Trumpet_staccato_MF_D#5_RR1.opus
tune=-8
</region>

<region>
hivel=86
key=D4
lovel=43
offset=181
sample=Trumpet_staccato_MF_D4_RR1.opus
tune=-11
</region>

<region>
hivel=86
key=D5
lovel=43
sample=Trumpet_staccato_MF_D5_RR1.opus
tune=-8
</region>

<region>
hivel=86
key=E4
lovel=43
offset=134
sample=Trumpet_staccato_MF_E4_RR1.opus
tune=-8
</region>

<region>
hivel=86
key=E5
lovel=43
offset=131
sample=Trumpet_staccato_MF_E5_RR1.opus
tune=-10
</region>

<region>
hivel=86
key=F#3
lovel=43
offset=1120
sample=Trumpet_staccato_MF_F#3_RR1.opus
tune=+19
</region>

<region>
hivel=86
key=F#4
lovel=43
offset=599
sample=Trumpet_staccato_MF_F#4_RR1.opus
tune=-14
</region>

<region>
hivel=86
key=F#5
lovel=43
offset=238
sample=Trumpet_staccato_MF_F#5_RR1.opus
tune=-18
</region>

<region>
hivel=86
key=F4
lovel=43
sample=Trumpet_staccato_MF_F4_RR1.opus
tune=-31
</region>

<region>
hivel=86
key=F5
lovel=43
offset=215
sample=Trumpet_staccato_MF_F5_RR1.opus
tune=-27
</region>

<region>
hivel=86
key=G#3
lovel=43
sample=Trumpet_staccato_MF_G#3_RR1.opus
tune=-14
</region>

<region>
hivel=86
key=G#4
lovel=43
sample=Trumpet_staccato_MF_G#4_RR1.opus
tune=-30
</region>

<region>
hivel=86
key=G#5
lovel=43
sample=Trumpet_staccato_MF_G#5_RR1.opus
tune=-37
</region>

<region>
hivel=86
key=G3
lovel=43
offset=25
sample=Trumpet_staccato_MF_G3_RR1.opus
tune=+10
</region>

<region>
hivel=86
key=G4
lovel=43
sample=Trumpet_staccato_MF_G4_RR1.opus
tune=-30
</region>

<region>
hivel=86
key=G5
lovel=43
offset=551
sample=Trumpet_staccato_MF_G5_RR1.opus
tune=-14
</region>

<region>
hivel=42
key=A#3
lovel=0
sample=Trumpet_staccato_PP_A#3_RR1.opus
tune=+6
</region>

<region>
hivel=42
key=A#4
lovel=0
offset=159
sample=Trumpet_staccato_PP_A#4_RR1.opus
tune=-36
</region>

<region>
hivel=42
key=A#5
lovel=0
sample=Trumpet_staccato_PP_A#5_RR1.opus
tune=-51
</region>

<region>
hivel=42
key=A3
lovel=0
offset=1914
sample=Trumpet_staccato_PP_A3_RR1.opus
tune=+2
</region>

<region>
hivel=42
key=A4
lovel=0
offset=295
sample=Trumpet_staccato_PP_A4_RR1.opus
tune=-25
</region>

<region>
hivel=42
key=A5
lovel=0
sample=Trumpet_staccato_PP_A5_RR1.opus
tune=-30
</region>

<region>
hivel=42
key=B3
lovel=0
offset=261
sample=Trumpet_staccato_PP_B3_RR1.opus
tune=-10
</region>

<region>
hivel=42
key=B4
lovel=0
offset=579
sample=Trumpet_staccato_PP_B4_RR1.opus
tune=-22
</region>

<region>
hivel=42
key=B5
lovel=0
offset=324
sample=Trumpet_staccato_PP_B5_RR1.opus
tune=-37
</region>

<region>
hivel=42
key=C#4
lovel=0
offset=1713
sample=Trumpet_staccato_PP_C#4_RR1.opus
tune=+3
</region>

<region>
hivel=42
key=C#5
lovel=0
offset=4956
sample=Trumpet_staccato_PP_C#5_RR1.opus
tune=-13
</region>

<region>
hikey=C4
hivel=42
lokey=C4
lovel=0
offset=470
sample=Trumpet_staccato_PP_C4_RR1.opus
tune=+21
</region>

<region>
hivel=42
key=C5
lovel=0
offset=158
sample=Trumpet_staccato_PP_C5_RR1.opus
tune=-7
</region>

<region>
hikey=F6
hivel=42
lokey=C6
lovel=0
pitch_keycenter=C6
sample=Trumpet_staccato_PP_C6_RR1.opus
tune=-32
</region>

<region>
hivel=42
key=D#4
lovel=0
offset=2456
sample=Trumpet_staccato_PP_D#4_RR1.opus
tune=-12
</region>

<region>
hivel=42
key=D#5
lovel=0
offset=529
sample=Trumpet_staccato_PP_D#5_RR1.opus
tune=-19
</region>

<region>
hivel=42
key=D4
lovel=0
offset=2425
sample=Trumpet_staccato_PP_D4_RR1.opus
tune=-24
</region>

<region>
hivel=42
key=D5
lovel=0
offset=2756
sample=Trumpet_staccato_PP_D5_RR1.opus
tune=-13
</region>

<region>
hivel=42
key=E4
lovel=0
offset=1356
sample=Trumpet_staccato_PP_E4_RR1.opus
tune=-11
</region>

<region>
hivel=42
key=E5
lovel=0
offset=207
sample=Trumpet_staccato_PP_E5_RR1.opus
tune=-23
</region>

<region>
hivel=42
key=F#3
lovel=0
offset=462
sample=Trumpet_staccato_PP_F#3_RR1.opus
tune=+27
</region>

<region>
hivel=42
key=F#4
lovel=0
offset=481
sample=Trumpet_staccato_PP_F#4_RR1.opus
tune=-16
</region>

<region>
hivel=42
key=F#5
lovel=0
offset=510
sample=Trumpet_staccato_PP_F#5_RR1.opus
tune=-29
</region>

<region>
hivel=42
key=F4
lovel=0
offset=99
sample=Trumpet_staccato_PP_F4_RR1.opus
tune=-30
</region>

<region>
hivel=42
key=F5
lovel=0
sample=Trumpet_staccato_PP_F5_RR1.opus
tune=-52
</region>

<region>
hivel=42
key=G#3
lovel=0
offset=1728
sample=Trumpet_staccato_PP_G#3_RR1.opus
tune=+14
</region>

<region>
hivel=42
key=G#4
lovel=0
offset=103
sample=Trumpet_staccato_PP_G#4_RR1.opus
tune=-25
</region>

<region>
hivel=42
key=G#5
lovel=0
sample=Trumpet_staccato_PP_G#5_RR1.opus
tune=-19
</region>

<region>
hivel=42
key=G3
lovel=0
sample=Trumpet_staccato_PP_G3_RR1.opus
tune=+3
</region>

<region>
hivel=42
key=G4
lovel=0
sample=Trumpet_staccato_PP_G4_RR1.opus
tune=-39
</region>

<region>
hivel=42
key=G5
lovel=0
sample=Trumpet_staccato_PP_G5_RR1.opus
tune=-22
</region>
</group>

<group>
group_label=RR2
seq_length=2
seq_position=2

<region>
hivel=127
key=A#3
lovel=87
offset=531
sample=Trumpet_staccato_FF_A#3_RR2.opus
tune=+33
</region>

<region>
hivel=127
key=A#4
lovel=87
offset=381
sample=Trumpet_staccato_FF_A#4_RR2.opus
tune=-14
</region>

<region>
hivel=127
key=A#5
lovel=87
offset=36
sample=Trumpet_staccato_FF_A#5_RR2.opus
tune=-55
</region>

<region>
hivel=127
key=A3
lovel=87
sample=Trumpet_staccato_FF_A3_RR2.opus
tune=+27
</region>

<region>
hivel=127
key=A4
lovel=87
offset=131
sample=Trumpet_staccato_FF_A4_RR2.opus
tune=-33
</region>

<region>
hivel=127
key=A5
lovel=87
sample=Trumpet_staccato_FF_A5_RR2.opus
tune=-27
</region>

<region>
hivel=127
key=B3
lovel=87
offset=516
sample=Trumpet_staccato_FF_B3_RR2.opus
tune=+17
</region>

<region>
hivel=127
key=B4
lovel=87
offset=237
sample=Trumpet_staccato_FF_B4_RR2.opus
tune=-11
</region>

<region>
hivel=127
key=B5
lovel=87
offset=57
sample=Trumpet_staccato_FF_B5_RR2.opus
tune=-25
</region>

<region>
hivel=127
key=C#4
lovel=87
sample=Trumpet_staccato_FF_C#4_RR2.opus
tune=+15
</region>

<region>
hivel=127
key=C#5
lovel=87
offset=160
sample=Trumpet_staccato_FF_C#5_RR2.opus
tune=-8
</region>

<region>
hikey=C4
hivel=127
lokey=C4
lovel=87
offset=3272
sample=Trumpet_staccato_FF_C4_RR2.opus
tune=-3
</region>

<region>
hivel=127
key=C5
lovel=87
offset=882
sample=Trumpet_staccato_FF_C5_RR2.opus
tune=-2
</region>

<region>
hikey=F6
hivel=127
lokey=C6
lovel=87
pitch_keycenter=C6
sample=Trumpet_staccato_FF_C6_RR2.opus
tune=-27
</region>

<region>
hivel=127
key=D#4
lovel=87
offset=137
sample=Trumpet_staccato_FF_D#4_RR2.opus
tune=+5
</region>

<region>
hivel=127
key=D#5
lovel=87
offset=254
sample=Trumpet_staccato_FF_D#5_RR2.opus
tune=-18
</region>

<region>
hivel=127
key=D4
lovel=87
offset=24
sample=Trumpet_staccato_FF_D4_RR2.opus
tune=-2
</region>

<region>
hivel=127
key=D5
lovel=87
offset=93
sample=Trumpet_staccato_FF_D5_RR2.opus
tune=-8
</region>

<region>
hivel=127
key=E4
lovel=87
sample=Trumpet_staccato_FF_E4_RR2.opus
tune=+12
</region>

<region>
hivel=127
key=E5
lovel=87
offset=61
sample=Trumpet_staccato_FF_E5_RR2.opus
tune=-11
</region>

<region>
hivel=127
key=F#3
lovel=87
offset=75
sample=Trumpet_staccato_FF_F#3_RR2.opus
tune=+32
</region>

<region>
hivel=127
key=F#4
lovel=87
offset=194
sample=Trumpet_staccato_FF_F#4_RR2.opus
tune=-9
</region>

<region>
hivel=127
key=F#5
lovel=87
offset=114
sample=Trumpet_staccato_FF_F#5_RR2.opus
tune=-16
</region>

<region>
hivel=127
key=F4
lovel=87
offset=81
sample=Trumpet_staccato_FF_F4_RR2.opus
tune=-5
</region>

<region>
hivel=127
key=F5
lovel=87
sample=Trumpet_staccato_FF_F5_RR2.opus
tune=-28
</region>

<region>
hivel=127
key=G#3
lovel=87
offset=848
sample=Trumpet_staccato_FF_G#3_RR2.opus
tune=+27
</region>

<region>
hivel=127
key=G#4
lovel=87
sample=Trumpet_staccato_FF_G#4_RR2.opus
tune=-15
</region>

<region>
hivel=127
key=G#5
lovel=87
sample=Trumpet_staccato_FF_G#5_RR2.opus
tune=-19
</region>

<region>
hivel=127
key=G3
lovel=87
sample=Trumpet_staccato_FF_G3_RR2.opus
tune=+27
</region>

<region>
hivel=127
key=G4
lovel=87
offset=196
sample=Trumpet_staccato_FF_G4_RR2.opus
tune=-8
</region>

<region>
hivel=127
key=G5
lovel=87
offset=83
sample=Trumpet_staccato_FF_G5_RR2.opus
tune=-14
</region>

<region>
hivel=86
key=A#3
lovel=43
offset=60
sample=Trumpet_staccato_MF_A#3_RR2.opus
tune=+1
</region>

<region>
hivel=86
key=A#4
lovel=43
sample=Trumpet_staccato_MF_A#4_RR2.opus
tune=-24
</region>

<region>
hivel=86
key=A#5
lovel=43
sample=Trumpet_staccato_MF_A#5_RR2.opus
tune=-45
</region>

<region>
hivel=86
key=A3
lovel=43
sample=Trumpet_staccato_MF_A3_RR2.opus
tune=-8
</region>

<region>
hivel=86
key=A4
lovel=43
sample=Trumpet_staccato_MF_A4_RR2.opus
tune=-26
</region>

<region>
hivel=86
key=A5
lovel=43
sample=Trumpet_staccato_MF_A5_RR2.opus
tune=-20
</region>

<region>
hivel=86
key=B3
lovel=43
offset=39
sample=Trumpet_staccato_MF_B3_RR2.opus
tune=+3
</region>

<region>
hivel=86
key=B4
lovel=43
sample=Trumpet_staccato_MF_B4_RR2.opus
tune=-10
</region>

<region>
hivel=86
key=B5
lovel=43
sample=Trumpet_staccato_MF_B5_RR2.opus
tune=-36
</region>

<region>
hivel=86
key=C#4
lovel=43
sample=Trumpet_staccato_MF_C#4_RR2.opus
tune=+4
</region>

<region>
hivel=86
key=C#5
lovel=43
offset=156
sample=Trumpet_staccato_MF_C#5_RR2.opus
tune=+5
</region>

<region>
hikey=C4
hivel=86
lokey=C4
lovel=43
offset=844
sample=Trumpet_staccato_MF_C4_RR2.opus
tune=+11
</region>

<region>
hivel=86
key=C5
lovel=43
offset=421
sample=Trumpet_staccato_MF_C5_RR2.opus
tune=+8
</region>

<region>
hikey=F6
hivel=86
lokey=C6
lovel=43
pitch_keycenter=C6
sample=Trumpet_staccato_MF_C6_RR2.opus
tune=-24
</region>

<region>
hivel=86
key=D#4
lovel=43
sample=Trumpet_staccato_MF_D#4_RR2.opus
tune=-10
</region>

<region>
hivel=86
key=D#5
lovel=43
offset=245
sample=Trumpet_staccato_MF_D#5_RR2.opus
tune=-14
</region>

<region>
hivel=86
key=D4
lovel=43
offset=184
sample=Trumpet_staccato_MF_D4_RR2.opus
tune=-12
</region>

<region>
hivel=86
key=D5
lovel=43
offset=84
sample=Trumpet_staccato_MF_D5_RR2.opus
tune=-16
</region>

<region>
hivel=86
key=E4
lovel=43
sample=Trumpet_staccato_MF_E4_RR2.opus
tune=-13
</region>

<region>
hivel=86
key=E5
lovel=43
offset=172
sample=Trumpet_staccato_MF_E5_RR2.opus
tune=-20
</region>

<region>
hivel=86
key=F#3
lovel=43
offset=4408
sample=Trumpet_staccato_MF_F#3_RR2.opus
tune=+13
</region>

<region>
hivel=86
key=F#4
lovel=43
offset=281
sample=Trumpet_staccato_MF_F#4_RR2.opus
tune=-14
</region>

<region>
hivel=86
key=F#5
lovel=43
offset=2591
sample=Trumpet_staccato_MF_F#5_RR2.opus
tune=-20
</region>

<region>
hivel=86
key=F4
lovel=43
offset=210
sample=Trumpet_staccato_MF_F4_RR2.opus
tune=-28
</region>

<region>
hivel=86
key=F5
lovel=43
offset=66
sample=Trumpet_staccato_MF_F5_RR2.opus
tune=-36
</region>

<region>
hivel=86
key=G#3
lovel=43
offset=2109
sample=Trumpet_staccato_MF_G#3_RR2.opus
tune=-11
</region>

<region>
hivel=86
key=G#4
lovel=43
sample=Trumpet_staccato_MF_G#4_RR2.opus
tune=-29
</region>

<region>
hivel=86
key=G#5
lovel=43
offset=511
sample=Trumpet_staccato_MF_G#5_RR2.opus
tune=-38
</region>

<region>
hivel=86
key=G3
lovel=43
offset=2190
sample=Trumpet_staccato_MF_G3_RR2.opus
tune=-2
</region>

<region>
hivel=86
key=G4
lovel=43
sample=Trumpet_staccato_MF_G4_RR2.opus
tune=-28
</region>

<region>
hivel=86
key=G5
lovel=43
offset=317
sample=Trumpet_staccato_MF_G5_RR2.opus
tune=-28
</region>

<region>
hivel=42
key=A#3
lovel=0
offset=1370
sample=Trumpet_staccato_PP_A#3_RR2.opus
tune=+2
</region>

<region>
hivel=42
key=A#4
lovel=0
offset=3729
sample=Trumpet_staccato_PP_A#4_RR2.opus
tune=-42
</region>

<region>
hivel=42
key=A#5
lovel=0
sample=Trumpet_staccato_PP_A#5_RR2.opus
tune=-43
</region>

<region>
hivel=42
key=A3
lovel=0
offset=2214
sample=Trumpet_staccato_PP_A3_RR2.opus
tune=+12
</region>

<region>
hivel=42
key=A4
lovel=0
offset=4825
sample=Trumpet_staccato_PP_A4_RR2.opus
tune=-31
</region>

<region>
hivel=42
key=A5
lovel=0
offset=505
sample=Trumpet_staccato_PP_A5_RR2.opus
tune=-33
</region>

<region>
hivel=42
key=B3
lovel=0
offset=3850
sample=Trumpet_staccato_PP_B3_RR2.opus
tune=-12
</region>

<region>
hivel=42
key=B4
lovel=0
offset=3544
sample=Trumpet_staccato_PP_B4_RR2.opus
tune=-25
</region>

<region>
hivel=42
key=B5
lovel=0
offset=179
sample=Trumpet_staccato_PP_B5_RR2.opus
tune=-47
</region>

<region>
hivel=42
key=C#4
lovel=0
offset=3064
sample=Trumpet_staccato_PP_C#4_RR2.opus
tune=+3
</region>

<region>
hivel=42
key=C#5
lovel=0
offset=492
sample=Trumpet_staccato_PP_C#5_RR2.opus
tune=-13
</region>

<region>
hikey=C4
hivel=42
lokey=C4
lovel=0
offset=110
sample=Trumpet_staccato_PP_C4_RR2.opus
tune=+29
</region>

<region>
hivel=42
key=C5
lovel=0
offset=693
sample=Trumpet_staccato_PP_C5_RR2.opus
tune=-9
</region>

<region>
hikey=F6
hivel=42
lokey=C6
lovel=0
offset=32
pitch_keycenter=C6
sample=Trumpet_staccato_PP_C6_RR2.opus
tune=-35
</region>

<region>
hivel=42
key=D#4
lovel=0
offset=2226
sample=Trumpet_staccato_PP_D#4_RR2.opus
tune=-12
</region>

<region>
hivel=42
key=D#5
lovel=0
offset=3542
sample=Trumpet_staccato_PP_D#5_RR2.opus
tune=-29
</region>

<region>
hivel=42
key=D4
lovel=0
offset=2626
sample=Trumpet_staccato_PP_D4_RR2.opus
tune=-25
</region>

<region>
hivel=42
key=D5
lovel=0
offset=4724
sample=Trumpet_staccato_PP_D5_RR2.opus
tune=-16
</region>

<region>
hivel=42
key=E4
lovel=0
offset=3491
sample=Trumpet_staccato_PP_E4_RR2.opus
tune=-10
</region>

<region>
hivel=42
key=E5
lovel=0
offset=69
sample=Trumpet_staccato_PP_E5_RR2.opus
tune=-28
</region>

<region>
hivel=42
key=F#3
lovel=0
offset=4033
sample=Trumpet_staccato_PP_F#3_RR2.opus
tune=+13
</region>

<region>
hivel=42
key=F#4
lovel=0
offset=1255
sample=Trumpet_staccato_PP_F#4_RR2.opus
tune=-23
</region>

<region>
hivel=42
key=F#5
lovel=0
offset=98
sample=Trumpet_staccato_PP_F#5_RR2.opus
tune=-34
</region>

<region>
hivel=42
key=F4
lovel=0
sample=Trumpet_staccato_PP_F4_RR2.opus
tune=-29
</region>

<region>
hivel=42
key=F5
lovel=0
offset=257
sample=Trumpet_staccato_PP_F5_RR2.opus
tune=-55
</region>

<region>
hivel=42
key=G#3
lovel=0
offset=3345
sample=Trumpet_staccato_PP_G#3_RR2.opus
</region>

<region>
hivel=42
key=G#4
lovel=0
offset=117
sample=Trumpet_staccato_PP_G#4_RR2.opus
tune=-26
</region>

<region>
hivel=42
key=G#5
lovel=0
offset=780
sample=Trumpet_staccato_PP_G#5_RR2.opus
tune=-19
</region>

<region>
hivel=42
key=G3
lovel=0
offset=769
sample=Trumpet_staccato_PP_G3_RR2.opus
tune=+2
</region>

<region>
hivel=42
key=G4
lovel=0
offset=2140
sample=Trumpet_staccato_PP_G4_RR2.opus
tune=-41
</region>

<region>
hivel=42
key=G5
lovel=0
offset=2791
sample=Trumpet_staccato_PP_G5_RR2.opus
tune=-26
</region>
</group>